# xmcd CD Database Entry
#
# Track frame offsets:
# 150
# 27200
# 54915
# 159752
# 214325
# 267687
#
# Disc length: 3839 seconds
#
# Revision: 2
# Processed by: cddbd v1.4b42PL1 Copyright (c) Steve Scherf et al.
# Submitted via: tcd 2.0b
#
DISCID=4c0efd06
DTITLE=Pink Floyd - 7/6/77 Montreal concert [CD2]
DYEAR=1900
DGENRE=
TTITLE0=Have A Cigar
TTITLE1=Wish You Were Here
TTITLE2=Shine On You Crazy Diamond (Part VI-IX)
TTITLE3=Money
TTITLE4=Us And Them
TTITLE5=Blues Jam
EXTD=
EXTT0=
EXTT1=
EXTT2=
EXTT3=
EXTT4=
EXTT5=
PLAYORDER=
